<svg width="21" height="21" viewBox="0 0 21 21" fill="none" xmlns="http://www.w3.org/2000/svg">
<g clip-path="url(#clip0_2004_915)">
<path d="M14.666 2.65137H6.33268C4.0315 2.65137 2.16602 4.51685 2.16602 6.81803V15.1514C2.16602 17.4526 4.0315 19.318 6.33268 19.318H14.666C16.9672 19.318 18.8327 17.4526 18.8327 15.1514V6.81803C18.8327 4.51685 16.9672 2.65137 14.666 2.65137Z" stroke="#9CA3AF" stroke-width="2" stroke-linecap="round" stroke-linejoin="round"/>
<path d="M13.8337 10.4596C13.9366 11.1532 13.8181 11.8615 13.4952 12.4838C13.1723 13.1061 12.6614 13.6108 12.0351 13.926C11.4088 14.2412 10.6991 14.351 10.0069 14.2396C9.31468 14.1282 8.67521 13.8014 8.17944 13.3056C7.68367 12.8098 7.35685 12.1704 7.24546 11.4781C7.13408 10.7859 7.24379 10.0762 7.55901 9.44994C7.87423 8.82367 8.3789 8.31274 9.00123 7.98983C9.62356 7.66691 10.3319 7.54845 11.0254 7.65129C11.7328 7.7562 12.3878 8.08585 12.8935 8.59155C13.3992 9.09725 13.7288 9.75219 13.8337 10.4596Z" stroke="#9CA3AF" stroke-width="2" stroke-linecap="round" stroke-linejoin="round"/>
<path d="M15.084 6.40137H15.0923" stroke="#9CA3AF" stroke-width="2" stroke-linecap="round" stroke-linejoin="round"/>
</g>
<defs>
<clipPath id="clip0_2004_915">
<rect width="20" height="20" fill="white" transform="translate(0.5 0.984375)"/>
</clipPath>
</defs>
</svg>
