<svg width="49" height="48" viewBox="0 0 49 48" fill="none" xmlns="http://www.w3.org/2000/svg">
<path d="M38.5 6H10.5C8.29086 6 6.5 7.79086 6.5 10V38C6.5 40.2091 8.29086 42 10.5 42H38.5C40.7091 42 42.5 40.2091 42.5 38V10C42.5 7.79086 40.7091 6 38.5 6Z" stroke="#9CA3AF" stroke-width="2" stroke-linecap="round" stroke-linejoin="round"/>
<path d="M18.5 22C20.7091 22 22.5 20.2091 22.5 18C22.5 15.7909 20.7091 14 18.5 14C16.2909 14 14.5 15.7909 14.5 18C14.5 20.2091 16.2909 22 18.5 22Z" stroke="#9CA3AF" stroke-width="2" stroke-linecap="round" stroke-linejoin="round"/>
<path d="M42.5 30.0004L36.328 23.8284C35.5779 23.0785 34.5607 22.6572 33.5 22.6572C32.4393 22.6572 31.4221 23.0785 30.672 23.8284L12.5 42.0004" stroke="#9CA3AF" stroke-width="2" stroke-linecap="round" stroke-linejoin="round"/>
</svg>
