<svg width="33" height="33" viewBox="0 0 33 33" fill="none" xmlns="http://www.w3.org/2000/svg">
<path d="M27.1673 18.3177C27.1673 24.9843 22.5007 28.3177 16.954 30.251C16.6635 30.3494 16.348 30.3447 16.0607 30.2377C10.5007 28.3177 5.83398 24.9843 5.83398 18.3177V8.98432C5.83398 8.6307 5.97446 8.29156 6.22451 8.04151C6.47456 7.79147 6.8137 7.65099 7.16732 7.65099C9.83398 7.65099 13.1673 6.05099 15.4873 4.02432C15.7698 3.78299 16.1291 3.65039 16.5007 3.65039C16.8722 3.65039 17.2315 3.78299 17.514 4.02432C19.8473 6.06432 23.1673 7.65099 25.834 7.65099C26.1876 7.65099 26.5267 7.79147 26.7768 8.04151C27.0268 8.29156 27.1673 8.6307 27.1673 8.98432V18.3177Z" stroke="#059669" stroke-width="2" stroke-linecap="round" stroke-linejoin="round"/>
<path d="M12.5 16.9845L15.1667 19.6512L20.5 14.3179" stroke="#059669" stroke-width="2" stroke-linecap="round" stroke-linejoin="round"/>
</svg>
