<svg width="33" height="33" viewBox="0 0 33 33" fill="none" xmlns="http://www.w3.org/2000/svg">
<path d="M21.8327 28.9844V26.3177C21.8327 24.9032 21.2708 23.5467 20.2706 22.5465C19.2704 21.5463 17.9138 20.9844 16.4993 20.9844H8.49935C7.08486 20.9844 5.72831 21.5463 4.72811 22.5465C3.72792 23.5467 3.16602 24.9032 3.16602 26.3177V28.9844" stroke="#059669" stroke-width="2" stroke-linecap="round" stroke-linejoin="round"/>
<path d="M12.4993 15.651C15.4449 15.651 17.8327 13.2632 17.8327 10.3177C17.8327 7.37219 15.4449 4.98438 12.4993 4.98438C9.55383 4.98438 7.16602 7.37219 7.16602 10.3177C7.16602 13.2632 9.55383 15.651 12.4993 15.651Z" stroke="#059669" stroke-width="2" stroke-linecap="round" stroke-linejoin="round"/>
<path d="M29.834 28.9844V26.3177C29.8331 25.136 29.4398 23.9881 28.7158 23.0541C27.9918 22.1202 26.9782 21.4531 25.834 21.1577" stroke="#059669" stroke-width="2" stroke-linecap="round" stroke-linejoin="round"/>
<path d="M21.834 5.15771C22.9812 5.45145 23.998 6.11865 24.7242 7.05413C25.4503 7.98961 25.8444 9.14015 25.8444 10.3244C25.8444 11.5086 25.4503 12.6592 24.7242 13.5946C23.998 14.5301 22.9812 15.1973 21.834 15.491" stroke="#059669" stroke-width="2" stroke-linecap="round" stroke-linejoin="round"/>
</svg>
